<!DOCTYPE svg PUBLIC "-//W3C//DTD SVG 1.1//EN" "http://www.w3.org/Graphics/SVG/1.1/DTD/svg11.dtd">
<!-- Uploaded to: SVG Repo, www.svgrepo.com, Transformed by: SVG Repo Mixer Tools -->
<svg version="1.1" id="Icons" xmlns="http://www.w3.org/2000/svg" xmlns:xlink="http://www.w3.org/1999/xlink" viewBox="0 0 32.00 32.00" xml:space="preserve" width="800px" height="800px" fill="#000000" transform="matrix(1, 0, 0, 1, 0, 0)" stroke="#000000">
<g id="SVGRepo_bgCarrier" stroke-width="0" transform="translate(0,0), scale(1)">
<rect x="0" y="0" width="32.00" height="32.00" rx="0" fill="#ffffff" strokewidth="0"/>
</g>
<g id="SVGRepo_tracerCarrier" stroke-linecap="round" stroke-linejoin="round" stroke="#CCCCCC" stroke-width="0.128"/>
<g id="SVGRepo_iconCarrier"> <style type="text/css"> .st0{fill:none;stroke:#000000;stroke-width:0.00032;stroke-linecap:round;stroke-linejoin:round;stroke-miterlimit:10;} </style> <path d="M26,1h-9v11c0,0.6-0.4,1-1,1s-1-0.4-1-1V1H6C3.2,1,1,3.2,1,6v20c0,2.8,2.2,5,5,5h9v-7c0-0.6,0.4-1,1-1s1,0.4,1,1v7h9 c2.8,0,5-2.2,5-5V6C31,3.2,28.8,1,26,1z M9,25.5C9,26.9,7.9,28,6.5,28S4,26.9,4,25.5v-7C4,17.1,5.1,16,6.5,16S9,17.1,9,18.5V25.5z M15,21c-1.7,0-3-1.3-3-3s1.3-3,3-3s3,1.3,3,3S16.7,21,15,21z M28,13.5c0,1.4-1.1,2.5-2.5,2.5S23,14.9,23,13.5v-7 C23,5.1,24.1,4,25.5,4S28,5.1,28,6.5V13.5z"/> </g>
</svg>